# xmcd
#
# Track frame offsets: 
#        150
#        13142
#        27795
#        40937
#        53587
#        68102
#        82047
#        96119
#        108651
#        119676
#        133221
#        146531
#        158929
#        173632
#        187114
#        208354
#        224039
#        241887
#        254602
#        265282
#        277855
#        291145
#        303550
#        317585
#        332620
#        345360
#
# Disc length: 4763 seconds
#
# Revision: 1
# Processed by: cddbd v1.5.2PL0 Copyright (c) Steve Scherf et al.
# Submitted via: ExactAudioCopy v1.1
#
DISCID=9312991a
DTITLE=Muddy Waters - Akella Presents - Greatest Bluesmen - vol. 19  C
DTITLE=D1
DYEAR=2017
DGENRE=Blues
TTITLE0=Forty Days and Forty Nights
TTITLE1=Just To Be With You
TTITLE2=Don't Go No Further
TTITLE3=She's Got It
TTITLE4=Rock Me
TTITLE5=Close to You
TTITLE6=Take the Bitter With the Sweet
TTITLE7=Walking Through the Park
TTITLE8=Diamonds At Your Feet
TTITLE9=Rollin' And Tumblin
TTITLE10=I Feel So Good
TTITLE11=My Love Strikes Like Lightning
TTITLE12=Good Morning Little Schoolgirl
TTITLE13=You Can't Lose What You Never Had
TTITLE14=Cold Weather Blues
TTITLE15=Big Leg Woman
TTITLE16=Feel Like Going Home
TTITLE17=Short Dress Woman
TTITLE18=My John the Conquerer Root
TTITLE19=Little Geneva
TTITLE20=Mannish Boy
TTITLE21=Canary Bird
TTITLE22=You're Gonna Need My Help I Said
TTITLE23=Honey Bee
TTITLE24=Appealing Blues(Hello Little Girl
TTITLE25=Landlady
EXTD=
EXTT0=
EXTT1=
EXTT2=
EXTT3=
EXTT4=
EXTT5=
EXTT6=
EXTT7=
EXTT8=
EXTT9=
EXTT10=
EXTT11=
EXTT12=
EXTT13=
EXTT14=
EXTT15=
EXTT16=
EXTT17=
EXTT18=
EXTT19=
EXTT20=
EXTT21=
EXTT22=
EXTT23=
EXTT24=
EXTT25=
PLAYORDER=
